<?xml version="1.0" encoding="utf-8"?>
<!-- Generator: Adobe Illustrator 28.2.0, SVG Export Plug-In . SVG Version: 6.00 Build 0)  -->
<svg version="1.1" id="Capa_1" xmlns="http://www.w3.org/2000/svg" xmlns:xlink="http://www.w3.org/1999/xlink" x="0px" y="0px"
	 viewBox="0 0 1536 584.44" style="enable-background:new 0 0 1536 584.44;" xml:space="preserve">
<style type="text/css">
	.st0{fill:#5353EE;}
</style>
<g>
	<g>
		<path class="st0" d="M495.81,94.57c4.65,3.14,9.18,6.43,13.59,9.88l-37.72,52.01c-4.36-3.51-8.9-6.8-13.6-9.88L495.81,94.57z
			 M269.31,73.04l19.95,61.39c12.66-5.91,26.15-10.34,40.24-13.07l-19.95-61.39C295.64,63.14,282.19,67.54,269.31,73.04
			 M409.29,124.47c4.9,1.36,9.72,2.9,14.44,4.66l19.84-61.08c-4.74-1.71-9.55-3.27-14.43-4.68L409.29,124.47z M211.59,205.98
			c6.36-11.12,13.86-21.5,22.43-30.9l-52.12-37.87c-8.28,9.65-15.8,19.97-22.47,30.88L211.59,205.98z M244.89,164.16
			c9.85-9.08,20.76-17.01,32.51-23.64l-37.92-52.19c-11.51,6.97-22.38,14.89-32.5,23.65L244.89,164.16z M586.14,209.24l-61.12,19.9
			c2.36,6.06,4.41,12.27,6.09,18.64l61.09-19.89C590.43,221.55,588.41,215.34,586.14,209.24 M188.69,292.22
			c0-5.81,0.3-11.56,0.86-17.23h-64.38c-0.41,5.69-0.63,11.44-0.63,17.23c0,5.8,0.22,11.54,0.63,17.23h64.38
			C188.99,303.78,188.69,298.04,188.69,292.22 M536.86,292.22c0,3.65-0.15,7.27-0.37,10.86h64.26c0.16-3.6,0.26-7.22,0.26-10.86
			c0-3.64-0.09-7.26-0.26-10.86h-64.26C536.71,284.95,536.86,288.57,536.86,292.22 M192.5,255.97c2.54-12.01,6.35-23.54,11.22-34.5
			l-61.3-19.92c-4.57,11.1-8.33,22.63-11.2,34.5L192.5,255.97z M498,182.62c3.91,4.82,7.55,9.85,10.93,15.08L560.96,160
			c-3.46-5.17-7.1-10.2-10.94-15.07L498,182.62z M340.51,55.04v64.57c0,0,0,0,0,0c2.92-0.37,12.24-1.47,22.27-1.47
			c11.06,0,19.34,1.09,22.27,1.47h0V55.04c-3.64-0.34-12.65-1.04-22.27-1.04C351.12,53.99,344.15,54.7,340.51,55.04 M476.37,424.08
			c-6.39,5.51-13.18,10.56-20.33,15.11l37.86,51.95c7.06-4.66,13.87-9.68,20.38-15.05L476.37,424.08z M202.99,361.35
			c-4.3-9.93-7.69-20.35-10.09-31.15l-61.26,19.91c2.67,10.68,6.06,21.08,10.11,31.14L202.99,361.35z M428.48,453.43
			c-7.77,3.17-15.81,5.79-24.1,7.82l19.87,61.17c8.22-2.19,16.25-4.8,24.1-7.82L428.48,453.43z M531.53,335.07
			c-1.89,7.45-4.28,14.7-7.1,21.74l61.14,19.89c2.69-7.09,5.05-14.35,7.07-21.74L531.53,335.07z M510.37,384.49
			c-4.27,6.82-8.99,13.33-14.14,19.47l52.03,37.74c5.03-6.24,9.76-12.73,14.15-19.47L510.37,384.49z M234.96,493.29l37.81-52.04
			c-8.46-5.12-16.43-10.98-23.86-17.42l-37.84,52.07C218.65,482.17,226.63,487.98,234.96,493.29 M231.68,406.69
			c-6.82-7.8-12.97-16.2-18.32-25.14l-52.06,37.82c5.56,8.79,11.67,17.19,18.3,25.15L231.68,406.69z M322.51,461.57
			c-9.2-2.18-18.14-5.06-26.71-8.64l-19.88,61.18c8.67,3.39,17.58,6.29,26.7,8.67L322.51,461.57z M376.11,530.07v-64.33
			c-4.4,0.33-8.84,0.56-13.33,0.56c-4.49,0-8.93-0.23-13.33-0.56v64.33c4.41,0.24,8.86,0.38,13.33,0.38
			C367.25,530.45,371.7,530.32,376.11,530.07 M317.07,135.15c-3.21,0.93-6.4,1.94-9.53,3.06l18.02,55.44
			c3.11-1.17,6.29-2.2,9.52-3.08L317.07,135.15z M374.41,129.09v58.44c-3.82-0.42-7.7-0.65-11.64-0.65c-3.94,0-7.82,0.23-11.64,0.65
			v-58.44c3.85-0.27,7.72-0.46,11.64-0.46C366.69,128.63,370.57,128.81,374.41,129.09 M405.88,196.1
			c-6.81-3.06-13.98-5.43-21.47-6.99l18.07-55.6c7.37,1.84,14.53,4.19,21.47,6.99L405.88,196.1z M433.21,213.89
			c-5.42-4.88-11.36-9.18-17.7-12.86l34.35-47.28c6.19,3.9,12.11,8.18,17.7,12.85L433.21,213.89z M305.33,203.94
			c-3,1.95-5.89,4.05-8.66,6.29l-34.26-47.14c2.81-2.19,5.68-4.32,8.64-6.33L305.33,203.94z M453.79,239.19
			c-3.58-6.13-7.75-11.87-12.45-17.13l47.28-34.35c4.51,5.42,8.65,11.16,12.44,17.14L453.79,239.19z M209.16,235.84l55.5,18.02
			c-1.46,3.74-2.73,7.57-3.77,11.5l-55.43-18C206.57,243.47,207.78,239.61,209.16,235.84 M468.13,292.22c0-3.34-0.17-6.63-0.48-9.89
			h58.4c0.19,3.28,0.33,6.57,0.33,9.89c0,3.33-0.13,6.62-0.33,9.89h-58.4C467.95,298.85,468.13,295.56,468.13,292.22 M281.16,225.63
			c-2.4,2.94-4.64,6.02-6.71,9.22l-47.2-34.26c2.14-3.15,4.41-6.2,6.76-9.19L281.16,225.63z M257.43,292.22
			c0,2.15,0.09,4.28,0.21,6.4h-58.3c-0.08-2.13-0.16-4.26-0.16-6.4c0-2.15,0.08-4.27,0.16-6.4h58.3
			C257.51,287.94,257.43,290.07,257.43,292.22 M294.95,372.81c3.79,3.19,7.82,6.12,12.04,8.77l-34.28,47.2
			c-4.15-2.74-8.16-5.67-12.04-8.78L294.95,372.81z M322.93,389.75c4.78,1.95,9.73,3.57,14.83,4.81l-18.04,55.49
			c-5.05-1.37-9.99-2.97-14.84-4.81L322.93,389.75z M273.55,348.2c2.53,4.02,5.31,7.86,8.34,11.49l-47.16,34.27
			c-2.95-3.7-5.74-7.52-8.36-11.47L273.55,348.2z M260.7,318.34c1.12,4.4,2.54,8.67,4.2,12.83l-55.5,18.03
			c-1.56-4.2-2.92-8.49-4.14-12.85L260.7,318.34z M354.63,455.61v-58.38c2.69,0.21,5.4,0.35,8.15,0.35c2.74,0,5.45-0.14,8.14-0.35
			v58.38c-2.7,0.13-5.41,0.21-8.14,0.21C360.04,455.81,357.33,455.74,354.63,455.61 M465.65,269.56
			c-1.48-6.76-3.61-13.28-6.32-19.48l55.55-18.05c2.5,6.31,4.66,12.8,6.37,19.47L465.65,269.56z M387.09,394.72
			c5.57-1.32,10.98-3.06,16.17-5.22l18.04,55.49c-5.26,2.02-10.65,3.78-16.16,5.25L387.09,394.72z M459.62,333.72
			c2.49-5.8,4.45-11.88,5.87-18.16l55.58,18.06c-1.62,6.2-3.62,12.25-5.93,18.14L459.62,333.72z M442.25,361.33
			c4.02-4.62,7.66-9.58,10.83-14.86l47.21,34.3c-3.33,5.16-6.92,10.14-10.8,14.88L442.25,361.33z M417.33,382.36
			c5.06-3.07,9.83-6.58,14.28-10.43l34.32,47.24c-4.57,3.72-9.35,7.17-14.32,10.39L417.33,382.36z"/>
		<path class="st0" d="M683.09,248.8h33.21v191.72h-33.21V248.8z M755.17,345.8c0-57.74,43.78-101.52,100.39-101.52
			c32.83,0,63.4,14.34,81.9,40.76l-26.42,20c-15.47-20.76-34.72-30.57-55.85-30.57c-36.61,0-65.67,29.06-65.67,70.2
			c0,41.89,29.82,70.2,66.05,70.2c23.4,0,44.53-11.7,59.25-32.08l25.29,18.49c-18.49,27.93-49.44,43.78-84.91,43.78
			C797.44,445.05,755.17,403.16,755.17,345.8 M1154.08,352.21H994.06c2.64,40.38,29.44,63.4,67.93,63.4
			c26.04,0,47.18-10.57,63.4-32.46l23.78,18.12c-18.49,27.55-49.44,43.78-87.93,43.78c-60.01,0-101.15-40.38-101.15-98.88
			c0-59.63,43.02-101.9,101.52-101.9c54.72,0,93.59,37.36,93.59,93.59C1155.21,343.53,1154.83,347.68,1154.08,352.21 M995.95,323.53
			h125.3c-4.91-33.21-26.8-50.57-59.63-50.57C1028.02,272.96,1003.49,291.45,995.95,323.53 M1181.24,414.48l21.13-24.91
			c18.12,16.98,41.89,25.66,64.16,25.66c25.66,0,41.14-11.7,41.14-27.55c0-11.32-8.3-20.38-32.83-26.04l-33.59-7.55
			c-38.5-8.68-54.72-25.29-54.72-51.33c0-34.72,28.68-58.5,73.59-58.5c30.95,0,59.63,10.94,77.75,30.57l-22.27,23.02
			c-15.85-15.85-35.48-23.78-57.74-23.78c-25.29,0-38.87,10.57-38.87,26.04c0,11.32,7.17,18.49,33.59,24.53l33.59,7.55
			c38.87,8.68,53.97,26.42,53.97,52.84c0,35.85-27.55,60.01-74.73,60.01C1232.57,445.05,1200.49,433.35,1181.24,414.48
			 M1378.24,248.8h33.21v191.72h-33.21V248.8z M683.09,175.86v-33.44h10.03v32.41c0,10.03,4.94,14.81,13.3,14.81
			c8.36,0,13.22-4.78,13.22-14.81v-32.41h10.11v33.44c0,14.97-8.92,23.25-23.33,23.25C691.93,199.11,683.09,190.83,683.09,175.86
			 M780.88,173.71v24.45h-9.56v-22.38c0-7.01-3.34-10.51-8.68-10.51c-3.51,0-7.17,1.43-10.03,4.78v28.11h-9.55v-40.77h9.55v3.43
			c3.34-2.79,7.8-4.38,12.42-4.38C774.42,156.43,780.88,162.72,780.88,173.71 M792.18,145.84c0-3.27,2.79-6.05,6.21-6.05
			c3.35,0,6.05,2.79,6.05,6.05c0,3.42-2.71,6.13-6.05,6.13C794.97,151.97,792.18,149.26,792.18,145.84 M793.54,157.38h9.55v40.77
			h-9.55V157.38z M855.01,157.38l-16.81,40.77h-10.19l-16.88-40.77h10.59l11.39,29.07l11.39-29.07H855.01z M901.51,180.16h-32.25
			c0.8,6.93,5.49,10.75,12.5,10.75c4.7,0,8.68-1.75,12.02-5.81l6.69,5.1c-4.3,5.81-10.91,8.92-18.87,8.92
			c-13.22,0-21.9-8.6-21.9-21.02c0-12.58,9.08-21.66,21.82-21.66c11.87,0,20.23,7.8,20.23,20.15
			C901.75,177.85,901.67,178.97,901.51,180.16 M869.74,172.99h22.38c-1.03-5.73-4.94-8.52-10.67-8.52
			C875.47,164.47,871.25,167.5,869.74,172.99 M937.59,156.99l-0.56,8.84c-1.36-0.24-2.63-0.4-3.75-0.4c-4.62,0-8.68,2.07-11.23,6.21
			v26.52h-9.55v-40.77h9.55v4.38c2.63-3.43,6.93-5.34,11.31-5.34C934.64,156.43,936.07,156.59,937.59,156.99 M943.87,193.14
			l4.94-7.17c4.22,3.27,9.08,4.94,13.46,4.94c4.46,0,7.01-1.83,7.01-4.38c0-1.91-1.43-3.35-5.65-4.3l-7.09-1.67
			c-8.2-1.91-11.55-5.5-11.55-11.15c0-7.72,6.21-12.98,16.32-12.98c6.69,0,12.82,2.23,16.88,5.97l-5.17,6.77
			c-3.83-3.03-7.96-4.54-12.11-4.54c-4.3,0-6.53,1.67-6.53,4.14c0,1.83,1.28,2.94,5.66,3.98l7.09,1.67
			c8.28,1.91,11.62,5.66,11.62,11.47c0,7.96-6.13,13.22-16.8,13.22C954.95,199.11,948.17,196.8,943.87,193.14 M987.67,145.84
			c0-3.27,2.79-6.05,6.21-6.05c3.35,0,6.05,2.79,6.05,6.05c0,3.42-2.71,6.13-6.05,6.13C990.46,151.97,987.67,149.26,987.67,145.84
			 M989.03,157.38h9.55v40.77h-9.55V157.38z M1050.74,139.39v58.77h-9.55v-3.11c-3.11,2.63-7.32,4.06-11.7,4.06
			c-11.15,0-20.31-8.92-20.31-21.34c0-12.42,9.16-21.34,20.31-21.34c4.38,0,8.6,1.44,11.7,4.06v-21.1H1050.74z M1041.18,185.57
			v-15.61c-2.63-3.19-6.45-4.7-10.27-4.7c-6.77,0-12.03,4.86-12.03,12.5c0,7.64,5.26,12.58,12.03,12.58
			C1034.73,190.35,1038.56,188.76,1041.18,185.57 M1102.98,157.38v40.77h-9.55v-3.11c-3.11,2.63-7.33,4.06-11.71,4.06
			c-11.15,0-20.3-8.92-20.3-21.34c0-12.42,9.16-21.34,20.3-21.34c4.38,0,8.6,1.44,11.71,4.06v-3.11H1102.98z M1093.42,185.57v-15.61
			c-2.63-3.19-6.45-4.7-10.27-4.7c-6.77,0-12.02,4.86-12.02,12.5c0,7.64,5.26,12.58,12.02,12.58
			C1086.97,190.35,1090.79,188.76,1093.42,185.57 M1155.21,139.39v58.77h-9.55v-3.11c-3.11,2.63-7.33,4.06-11.71,4.06
			c-11.15,0-20.31-8.92-20.31-21.34c0-12.42,9.16-21.34,20.31-21.34c4.38,0,8.6,1.44,11.71,4.06v-21.1H1155.21z M1145.66,185.57
			v-15.61c-2.63-3.19-6.45-4.7-10.27-4.7c-6.77,0-12.02,4.86-12.02,12.5c0,7.64,5.26,12.58,12.02,12.58
			C1139.2,190.35,1143.03,188.76,1145.66,185.57"/>
	</g>
</g>
</svg>
